<svg width="76" height="72" fill="none" xmlns="http://www.w3.org/2000/svg"><path d="M11.829 5.138h-2.38V7.38h2.38V5.138Zm59.481 0H18.966V7.38H71.31V5.138ZM4.759 30.052h2.243V16.898h2.447v-2.243H4.76v15.397ZM71.31 64.619h-2.38v2.243h2.38V64.62ZM30.794 40.69h8.328V26.552H28.551v8.26h2.244v-6.017h6.083v9.653h-8.327v9.381H39.19v-2.243h-8.395V40.69Zm20.224-14.207h-2.244v11.964H43.88V26.483h-2.243v14.208h7.137v7.205h2.244v-7.205h2.447v-2.244h-2.447V26.483ZM35.62 58.67h-2.378v2.244h2.379v-2.243ZM20.156 39.637h-2.38v2.243h2.38v-2.243Zm0 9.517h-2.38v2.243h2.38v-2.243Z" fill="#FFB444"/><path d="M58.224.38v2.243h15.533v7.273H2.243V2.623h52.412V.379H0v48.707h2.243V12.14h71.514v57.237H2.243V52.655H0V71.62h76V.379H58.224Z" fill="#FFB444"/><path d="M7.07 5.138H4.69V7.38h2.38V5.138Zm9.517 0h-2.38V7.38h2.38V5.138ZM71.31 59.86h-2.38v2.244h2.38V59.86Zm-4.76 4.759h-2.378v2.243h2.379V64.62Zm-51.724-5.842-3.516 3.516 6.869 5.151 2.412-4.824 4.255 2.837V51.098l-14.359 4.787 4.34 2.892Zm7.777-4.566v7.055l-2.882-1.922-2.347 4.693-2.648-1.986 3.622-3.622-2.8-1.866 7.055-2.352Zm18.966-40.746c-13.082 0-23.725 10.643-23.725 23.725h2.244c0-11.845 9.636-21.481 21.48-21.481 11.845 0 21.482 9.636 21.482 21.48 0 11.845-9.637 21.482-21.481 21.482h-3.57v2.243h3.57c13.082 0 23.724-10.642 23.724-23.724S54.651 13.465 41.57 13.465ZM30.862 58.67h-2.379v2.244h2.38v-2.243ZM20.156 44.395h-2.38v2.244h2.38v-2.244ZM7.07 32.5H4.69v2.242h2.38V32.5Zm0 4.758H4.69V39.5h2.38v-2.243Z" fill="#FFB444"/></svg>