<svg width="76" height="76" fill="none" xmlns="http://www.w3.org/2000/svg"><path d="M70.063 16.625a3.563 3.563 0 0 0 3.562-3.563V5.939a3.562 3.562 0 0 0-3.563-3.563h-38A3.563 3.563 0 0 0 28.5 5.938v7.125a3.563 3.563 0 0 0 3.563 3.562h1.187V19h-1.188a3.563 3.563 0 0 0-3.562 3.563v7.125a3.563 3.563 0 0 0 3.563 3.562h1.187v2.375h-1.188a3.563 3.563 0 0 0-3.562 3.563v7.124a3.563 3.563 0 0 0 3.563 3.563h1.187V51.4a8.314 8.314 0 0 0-3.266.146l-6.234 1.558v-2.041a1.188 1.188 0 0 0-1.188-1.188h-9.5a1.188 1.188 0 0 0-1.187 1.188v1.187H3.562a1.187 1.187 0 0 0-1.187 1.188v16.624a1.188 1.188 0 0 0 1.188 1.188h8.312v1.188a1.188 1.188 0 0 0 1.188 1.187h9.5a1.188 1.188 0 0 0 1.187-1.188v-1.64l1.527.763a8.345 8.345 0 0 0 3.718.877H46.78c1.46 0 2.893-.384 4.156-1.113l19.95-11.52a4.75 4.75 0 0 0-2.01-8.835v-1.094h1.188a3.563 3.563 0 0 0 3.562-3.563v-7.124a3.563 3.563 0 0 0-3.563-3.563h-1.187V33.25h1.188a3.563 3.563 0 0 0 3.562-3.563v-7.125A3.563 3.563 0 0 0 70.062 19h-1.187v-2.375h1.188ZM4.75 68.875v-14.25h7.125v14.25H4.75Zm16.625 2.375H14.25v-19h7.125v19Zm49.18-16.744a2.385 2.385 0 0 1-.86 3.248l-19.95 11.519a5.937 5.937 0 0 1-2.97.795h-17.78a5.98 5.98 0 0 1-2.656-.627l-2.589-1.3V55.554l6.81-1.703a5.95 5.95 0 0 1 2.977.025l17.718 4.75a2.375 2.375 0 1 1-1.23 4.587l-14.163-3.798a1.187 1.187 0 0 0-.613 2.295l14.16 3.8c.404.108.82.163 1.238.163a4.692 4.692 0 0 0 4.708-5.126l11.96-6.905a2.417 2.417 0 0 1 3.24.864ZM36.65 52.25l-1.025-.274v-2.101H66.5v1.521c-.119.058-.248.113-.368.182l-1.165.672H36.65Zm24.203 2.375-6.3 3.637a4.708 4.708 0 0 0-2.683-1.934l-6.355-1.703h15.338ZM70.063 38a1.188 1.188 0 0 1 1.187 1.188v7.124a1.188 1.188 0 0 1-1.188 1.188h-38a1.188 1.188 0 0 1-1.187-1.188v-7.124A1.188 1.188 0 0 1 32.063 38h38Zm-34.438-2.375V33.25H66.5v2.375H35.625Zm34.438-14.25a1.188 1.188 0 0 1 1.187 1.188v7.125a1.188 1.188 0 0 1-1.188 1.187h-38a1.188 1.188 0 0 1-1.187-1.188v-7.125a1.188 1.188 0 0 1 1.188-1.187h38ZM35.624 19v-2.375H66.5V19H35.625Zm-3.563-4.75a1.188 1.188 0 0 1-1.187-1.188V5.939a1.187 1.187 0 0 1 1.188-1.188h38a1.188 1.188 0 0 1 1.187 1.188v7.125a1.188 1.188 0 0 1-1.188 1.187h-38Z" fill="#FF154D"/><path d="M33.25 7.125h2.375v4.75H33.25v-4.75Zm4.75 0h2.375v4.75H38v-4.75Zm4.75 0h2.375v4.75H42.75v-4.75Zm9.5 0h2.375v4.75H52.25v-4.75Zm-4.75 0h2.375v4.75H47.5v-4.75ZM38 23.75h2.375v4.75H38v-4.75Zm-4.75 0h2.375v4.75H33.25v-4.75Zm9.5 0h2.375v4.75H42.75v-4.75Zm4.75 0h2.375v4.75H47.5v-4.75Zm4.75 0h2.375v4.75H52.25v-4.75Zm-19 16.625h2.375v4.75H33.25v-4.75Zm4.75 0h2.375v4.75H38v-4.75Zm4.75 0h2.375v4.75H42.75v-4.75Zm4.75 0h2.375v4.75H47.5v-4.75Zm4.75 0h2.375v4.75H52.25v-4.75Zm16.625-33.25a1.187 1.187 0 0 0-1.188-1.188h-9.5A1.188 1.188 0 0 0 57 7.125v4.75a1.188 1.188 0 0 0 1.188 1.188h9.5a1.188 1.188 0 0 0 1.187-1.188v-4.75ZM66.5 10.688h-7.125V8.312H66.5v2.376Zm-8.312 19h9.5a1.188 1.188 0 0 0 1.187-1.188v-4.75a1.188 1.188 0 0 0-1.188-1.188h-9.5A1.188 1.188 0 0 0 57 23.75v4.75a1.188 1.188 0 0 0 1.188 1.188Zm1.187-4.75H66.5v2.375h-7.125v-2.375Zm-1.187 21.375h9.5a1.188 1.188 0 0 0 1.187-1.188v-4.75a1.188 1.188 0 0 0-1.188-1.188h-9.5A1.188 1.188 0 0 0 57 40.376v4.75a1.188 1.188 0 0 0 1.188 1.188Zm1.187-4.75H66.5v2.374h-7.125v-2.374Z" fill="#FF154D"/></svg>