<svg width="76" height="76" viewBox="0 0 76 76" fill="none" xmlns="http://www.w3.org/2000/svg">
<path d="M70.0625 16.625C71.0073 16.625 71.9135 16.2497 72.5816 15.5816C73.2497 14.9135 73.625 14.0073 73.625 13.0625V5.9375C73.625 4.99267 73.2497 4.08653 72.5816 3.41843C71.9135 2.75033 71.0073 2.375 70.0625 2.375H32.0625C31.1177 2.375 30.2115 2.75033 29.5434 3.41843C28.8753 4.08653 28.5 4.99267 28.5 5.9375V13.0625C28.5 14.0073 28.8753 14.9135 29.5434 15.5816C30.2115 16.2497 31.1177 16.625 32.0625 16.625H33.25V19H32.0625C31.1177 19 30.2115 19.3753 29.5434 20.0434C28.8753 20.7115 28.5 21.6177 28.5 22.5625V29.6875C28.5 30.6323 28.8753 31.5385 29.5434 32.2066C30.2115 32.8747 31.1177 33.25 32.0625 33.25H33.25V35.625H32.0625C31.1177 35.625 30.2115 36.0003 29.5434 36.6684C28.8753 37.3365 28.5 38.2427 28.5 39.1875V46.3125C28.5 47.2573 28.8753 48.1635 29.5434 48.8316C30.2115 49.4997 31.1177 49.875 32.0625 49.875H33.25V51.3997C32.1625 51.2318 31.0525 51.2815 29.9844 51.5458L23.75 53.1038V51.0625C23.75 50.7476 23.6249 50.4455 23.4022 50.2228C23.1795 50.0001 22.8774 49.875 22.5625 49.875H13.0625C12.7476 49.875 12.4455 50.0001 12.2228 50.2228C12.0001 50.4455 11.875 50.7476 11.875 51.0625V52.25H3.5625C3.24756 52.25 2.94551 52.3751 2.72281 52.5978C2.50011 52.8205 2.375 53.1226 2.375 53.4375V70.0625C2.375 70.3774 2.50011 70.6795 2.72281 70.9022C2.94551 71.1249 3.24756 71.25 3.5625 71.25H11.875V72.4375C11.875 72.7524 12.0001 73.0545 12.2228 73.2772C12.4455 73.4999 12.7476 73.625 13.0625 73.625H22.5625C22.8774 73.625 23.1795 73.4999 23.4022 73.2772C23.6249 73.0545 23.75 72.7524 23.75 72.4375V70.7964L25.2771 71.5599C26.432 72.136 27.7047 72.4364 28.9952 72.4375H46.7792C48.2383 72.4368 49.6716 72.0527 50.9354 71.3236L70.8854 59.8049C71.7582 59.2952 72.4456 58.5205 72.8478 57.5933C73.25 56.6661 73.3459 55.6347 73.1217 54.6493C72.8975 53.6638 72.3648 52.7755 71.6011 52.1136C70.8373 51.4516 69.8823 51.0506 68.875 50.9687V49.875H70.0625C71.0073 49.875 71.9135 49.4997 72.5816 48.8316C73.2497 48.1635 73.625 47.2573 73.625 46.3125V39.1875C73.625 38.2427 73.2497 37.3365 72.5816 36.6684C71.9135 36.0003 71.0073 35.625 70.0625 35.625H68.875V33.25H70.0625C71.0073 33.25 71.9135 32.8747 72.5816 32.2066C73.2497 31.5385 73.625 30.6323 73.625 29.6875V22.5625C73.625 21.6177 73.2497 20.7115 72.5816 20.0434C71.9135 19.3753 71.0073 19 70.0625 19H68.875V16.625H70.0625ZM4.75 68.875V54.625H11.875V68.875H4.75ZM21.375 71.25H14.25V52.25H21.375V71.25ZM70.5541 54.5063C70.8684 55.0515 70.9544 55.6989 70.7934 56.3073C70.6323 56.9157 70.2373 57.4357 69.6944 57.7541L49.7444 69.2728C48.8418 69.794 47.8179 70.0684 46.7756 70.0684H28.9952C28.0732 70.067 27.1641 69.8524 26.3388 69.4414L23.75 68.1411V55.5536L30.5603 53.8507C31.5387 53.6066 32.5632 53.6152 33.5374 53.8757L51.2549 58.6257C51.5614 58.7015 51.8497 58.8376 52.103 59.0262C52.3563 59.2148 52.5694 59.4519 52.73 59.7238C52.8905 59.9958 52.9952 60.2969 53.0379 60.6098C53.0807 60.9227 53.0606 61.2409 52.9789 61.5459C52.8972 61.8509 52.7554 62.1366 52.562 62.3861C52.3686 62.6357 52.1273 62.8442 51.8524 62.9994C51.5774 63.1547 51.2742 63.2535 50.9606 63.2902C50.647 63.3269 50.3292 63.3006 50.0258 63.213L35.8625 59.4154C35.5588 59.3356 35.2359 59.3794 34.9644 59.5371C34.6929 59.6948 34.4949 59.9536 34.4137 60.257C34.3326 60.5603 34.3748 60.8834 34.5313 61.1556C34.6877 61.4279 34.9456 61.627 35.2486 61.7096L49.4095 65.5096C49.8131 65.6179 50.229 65.673 50.6469 65.6735C51.3027 65.6785 51.9523 65.5459 52.5537 65.2844C53.1552 65.0229 53.6951 64.6382 54.1388 64.1552C54.5824 63.6722 54.9199 63.1015 55.1294 62.48C55.3389 61.8586 55.4159 61.2001 55.3553 60.5471L67.3158 53.6418C67.8626 53.3392 68.5054 53.2602 69.1092 53.4213C69.713 53.5825 70.2309 53.9714 70.5541 54.5063ZM36.6498 52.25L35.625 51.9757V49.875H66.5V51.3962C66.3812 51.4544 66.2518 51.509 66.1319 51.5779L64.9669 52.25H36.6498ZM60.8534 54.625L54.5526 58.2623C53.9218 57.3143 52.9687 56.627 51.87 56.3279L45.5145 54.625H60.8534ZM70.0625 38C70.3774 38 70.6795 38.1251 70.9022 38.3478C71.1249 38.5705 71.25 38.8726 71.25 39.1875V46.3125C71.25 46.6274 71.1249 46.9295 70.9022 47.1522C70.6795 47.3749 70.3774 47.5 70.0625 47.5H32.0625C31.7476 47.5 31.4455 47.3749 31.2228 47.1522C31.0001 46.9295 30.875 46.6274 30.875 46.3125V39.1875C30.875 38.8726 31.0001 38.5705 31.2228 38.3478C31.4455 38.1251 31.7476 38 32.0625 38H70.0625ZM35.625 35.625V33.25H66.5V35.625H35.625ZM70.0625 21.375C70.3774 21.375 70.6795 21.5001 70.9022 21.7228C71.1249 21.9455 71.25 22.2476 71.25 22.5625V29.6875C71.25 30.0024 71.1249 30.3045 70.9022 30.5272C70.6795 30.7499 70.3774 30.875 70.0625 30.875H32.0625C31.7476 30.875 31.4455 30.7499 31.2228 30.5272C31.0001 30.3045 30.875 30.0024 30.875 29.6875V22.5625C30.875 22.2476 31.0001 21.9455 31.2228 21.7228C31.4455 21.5001 31.7476 21.375 32.0625 21.375H70.0625ZM35.625 19V16.625H66.5V19H35.625ZM32.0625 14.25C31.7476 14.25 31.4455 14.1249 31.2228 13.9022C31.0001 13.6795 30.875 13.3774 30.875 13.0625V5.9375C30.875 5.62256 31.0001 5.32051 31.2228 5.09781C31.4455 4.87511 31.7476 4.75 32.0625 4.75H70.0625C70.3774 4.75 70.6795 4.87511 70.9022 5.09781C71.1249 5.32051 71.25 5.62256 71.25 5.9375V13.0625C71.25 13.3774 71.1249 13.6795 70.9022 13.9022C70.6795 14.1249 70.3774 14.25 70.0625 14.25H32.0625Z" fill="#FF154D"/>
<path d="M33.25 7.125H35.625V11.875H33.25V7.125Z" fill="#FF154D"/>
<path d="M38 7.125H40.375V11.875H38V7.125Z" fill="#FF154D"/>
<path d="M42.75 7.125H45.125V11.875H42.75V7.125Z" fill="#FF154D"/>
<path d="M52.25 7.125H54.625V11.875H52.25V7.125Z" fill="#FF154D"/>
<path d="M47.5 7.125H49.875V11.875H47.5V7.125Z" fill="#FF154D"/>
<path d="M38 23.75H40.375V28.5H38V23.75Z" fill="#FF154D"/>
<path d="M33.25 23.75H35.625V28.5H33.25V23.75Z" fill="#FF154D"/>
<path d="M42.75 23.75H45.125V28.5H42.75V23.75Z" fill="#FF154D"/>
<path d="M47.5 23.75H49.875V28.5H47.5V23.75Z" fill="#FF154D"/>
<path d="M52.25 23.75H54.625V28.5H52.25V23.75Z" fill="#FF154D"/>
<path d="M33.25 40.375H35.625V45.125H33.25V40.375Z" fill="#FF154D"/>
<path d="M38 40.375H40.375V45.125H38V40.375Z" fill="#FF154D"/>
<path d="M42.75 40.375H45.125V45.125H42.75V40.375Z" fill="#FF154D"/>
<path d="M47.5 40.375H49.875V45.125H47.5V40.375Z" fill="#FF154D"/>
<path d="M52.25 40.375H54.625V45.125H52.25V40.375Z" fill="#FF154D"/>
<path d="M68.875 7.125C68.875 6.81006 68.7499 6.50801 68.5272 6.28531C68.3045 6.06261 68.0024 5.9375 67.6875 5.9375H58.1875C57.8726 5.9375 57.5705 6.06261 57.3478 6.28531C57.1251 6.50801 57 6.81006 57 7.125V11.875C57 12.1899 57.1251 12.492 57.3478 12.7147C57.5705 12.9374 57.8726 13.0625 58.1875 13.0625H67.6875C68.0024 13.0625 68.3045 12.9374 68.5272 12.7147C68.7499 12.492 68.875 12.1899 68.875 11.875V7.125ZM66.5 10.6875H59.375V8.3125H66.5V10.6875Z" fill="#FF154D"/>
<path d="M58.1875 29.6875H67.6875C68.0024 29.6875 68.3045 29.5624 68.5272 29.3397C68.7499 29.117 68.875 28.8149 68.875 28.5V23.75C68.875 23.4351 68.7499 23.133 68.5272 22.9103C68.3045 22.6876 68.0024 22.5625 67.6875 22.5625H58.1875C57.8726 22.5625 57.5705 22.6876 57.3478 22.9103C57.1251 23.133 57 23.4351 57 23.75V28.5C57 28.8149 57.1251 29.117 57.3478 29.3397C57.5705 29.5624 57.8726 29.6875 58.1875 29.6875ZM59.375 24.9375H66.5V27.3125H59.375V24.9375Z" fill="#FF154D"/>
<path d="M58.1875 46.3125H67.6875C68.0024 46.3125 68.3045 46.1874 68.5272 45.9647C68.7499 45.742 68.875 45.4399 68.875 45.125V40.375C68.875 40.0601 68.7499 39.758 68.5272 39.5353C68.3045 39.3126 68.0024 39.1875 67.6875 39.1875H58.1875C57.8726 39.1875 57.5705 39.3126 57.3478 39.5353C57.1251 39.758 57 40.0601 57 40.375V45.125C57 45.4399 57.1251 45.742 57.3478 45.9647C57.5705 46.1874 57.8726 46.3125 58.1875 46.3125ZM59.375 41.5625H66.5V43.9375H59.375V41.5625Z" fill="#FF154D"/>
</svg>
