<svg width="76" height="76" viewBox="0 0 76 76" fill="none" xmlns="http://www.w3.org/2000/svg">
<g clip-path="url(#clip0_283:351)">
<path d="M38.0186 65.8674H25.3552V17.7466H38.0186V22.2295C38.0186 22.9288 38.5856 23.4958 39.2849 23.4958C39.9842 23.4958 40.5512 22.9288 40.5512 22.2295V17.7466H62.0789C62.6558 17.7503 63.1623 17.3645 63.3113 16.8074C63.4603 16.2503 63.2142 15.6629 62.7121 15.3784L59.5463 13.555L60.5851 12.1749C60.8472 11.8039 60.8911 11.3204 60.6988 10.9085C60.4985 10.4497 60.0471 10.1517 59.5463 10.1486H51.8598C51.9211 9.7294 51.9507 9.30584 51.9483 8.88229C51.9575 4.53173 48.8078 0.818059 44.5147 0.116258C40.2211 -0.585544 36.0529 1.93167 34.6759 6.05839C32.8957 4.75742 30.4787 4.75742 28.6985 6.05839C27.3215 1.93167 23.1534 -0.585544 18.8597 0.116258C14.5667 0.818059 11.4169 4.53173 11.4255 8.88229C11.4231 9.30584 11.4528 9.7294 11.5146 10.1486H3.82754C3.35081 10.1499 2.9155 10.4194 2.70094 10.8449C2.50864 11.2573 2.55193 11.7402 2.81472 12.1112L3.82754 13.555L0.6617 15.3784C0.160236 15.6629 -0.0858586 16.2503 0.0631585 16.8074C0.212175 17.3645 0.718586 17.7503 1.29487 17.7466H5.09387V67.1337C5.09387 67.833 5.66088 68.4 6.36021 68.4H38.0186C38.7179 68.4 39.2849 67.833 39.2849 67.1337C39.2849 66.4344 38.7179 65.8674 38.0186 65.8674ZM57.0136 12.6813L56.6339 13.1877C56.4151 13.4777 56.331 13.8481 56.4039 14.2042C56.4763 14.5604 56.6989 14.8683 57.0136 15.0495L57.3048 15.214H49.2765C50.0296 14.4874 50.6436 13.6292 51.0876 12.6813H57.0136ZM36.7522 8.88229C36.7522 5.38503 39.5873 2.55061 43.0839 2.55061C46.5812 2.55061 49.4156 5.38503 49.4156 8.88229C49.4168 9.56245 49.3055 10.2389 49.0866 10.8832L49.0106 11.1107C48.0825 13.5791 45.7211 15.214 43.0839 15.214H36.7522V12.6813H43.0839C45.1825 12.6813 46.8829 10.9803 46.8829 8.88229C46.8829 6.7843 45.1825 5.08328 43.0839 5.08328C40.9859 5.08328 39.2849 6.7843 39.2849 8.88229V10.1486H36.7522V8.88229ZM41.8176 10.1486V8.88229C41.8176 8.18296 42.3846 7.61595 43.0839 7.61595C43.7832 7.61595 44.3503 8.18296 44.3503 8.88229C44.3503 9.58162 43.7832 10.1486 43.0839 10.1486H41.8176ZM31.6869 7.61595C33.0862 7.61595 34.2196 8.74997 34.2196 10.1486V15.214H29.1542V10.1486C29.1542 8.74997 30.2882 7.61595 31.6869 7.61595ZM20.2899 2.55061C23.7871 2.55061 26.6216 5.38503 26.6216 8.88229V10.1486H24.0889V8.88229C24.0889 6.7843 22.3885 5.08328 20.2899 5.08328C18.1919 5.08328 16.4909 6.7843 16.4909 8.88229C16.4909 10.9803 18.1919 12.6813 20.2899 12.6813H26.6216V15.214H20.2899C17.6527 15.214 15.2919 13.5791 14.3638 11.1107C14.3638 11.0223 14.3638 10.9593 14.2878 10.8832C14.0689 10.2389 13.9576 9.56245 13.9582 8.88229C13.9582 5.38503 16.7932 2.55061 20.2899 2.55061ZM21.5562 10.1486H20.2899C19.5906 10.1486 19.0236 9.58162 19.0236 8.88229C19.0236 8.18296 19.5906 7.61595 20.2899 7.61595C20.9892 7.61595 21.5562 8.18296 21.5562 8.88229V10.1486ZM6.36021 15.0495C6.67555 14.8683 6.89815 14.5604 6.9705 14.2042C7.04346 13.8481 6.95937 13.4777 6.74048 13.1877L6.36021 12.6813H12.2869C12.7308 13.6292 13.3448 14.4874 14.098 15.214H6.06897L6.36021 15.0495ZM7.62654 17.7466H22.8226V65.8674H7.62654V17.7466Z" fill="url(#paint0_linear_283:351)"/>
<path d="M35.4858 40.5407C35.4858 51.7305 44.5573 60.802 55.7472 60.802C66.9377 60.802 76.0085 51.7305 76.0085 40.5407C76.0085 29.3508 66.9377 20.2793 55.7472 20.2793C44.5573 20.2793 35.4858 29.3508 35.4858 40.5407ZM73.4759 40.5407C73.4759 50.3319 65.539 58.2693 55.7472 58.2693C45.956 58.2693 38.0185 50.3319 38.0185 40.5407C38.0185 30.7494 45.956 22.812 55.7472 22.812C65.539 22.812 73.4759 30.7494 73.4759 40.5407Z" fill="url(#paint1_linear_283:351)"/>
<path d="M55.7474 35.4753C56.7886 35.4889 57.6277 36.3336 57.6345 37.3748C57.6345 38.0742 58.2015 38.6412 58.9008 38.6412C59.6002 38.6412 60.1672 38.0742 60.1672 37.3748C60.1622 35.4216 58.8829 33.7001 57.0137 33.1325V31.6763C57.0137 30.977 56.4467 30.41 55.7474 30.41C55.048 30.41 54.481 30.977 54.481 31.6763V33.1325C52.3812 33.7681 51.0623 35.8439 51.3789 38.0148C51.6961 40.1858 53.5535 41.7984 55.7474 41.807C56.7967 41.807 57.6469 42.6572 57.6469 43.7065C57.6469 44.7552 56.7967 45.606 55.7474 45.606C54.6987 45.606 53.8479 44.7552 53.8479 43.7065C53.8479 43.0072 53.2808 42.4402 52.5815 42.4402C51.8822 42.4402 51.3152 43.0072 51.3152 43.7065C51.322 45.6635 52.6075 47.3856 54.481 47.9489V49.405C54.481 50.1044 55.048 50.6714 55.7474 50.6714C56.4467 50.6714 57.0137 50.1044 57.0137 49.405V47.9489C59.1142 47.3132 60.433 45.2369 60.1158 43.0659C59.7993 40.895 57.9418 39.283 55.7474 39.2744C54.6987 39.2744 53.8479 38.4235 53.8479 37.3748C53.8479 36.3255 54.6987 35.4753 55.7474 35.4753Z" fill="url(#paint2_linear_283:351)"/>
<path d="M40.5513 40.5406C40.5513 48.9332 47.3547 55.7366 55.7473 55.7366C64.1399 55.7366 70.9433 48.9332 70.9433 40.5406C70.9433 39.8413 70.3763 39.2743 69.677 39.2743C68.9777 39.2743 68.4107 39.8413 68.4107 40.5406C68.4125 46.5817 64.1454 51.783 58.2206 52.9628C52.2952 54.1426 46.3617 50.9724 44.0492 45.3914C41.736 39.8104 43.6874 33.3723 48.7107 30.0154C53.7334 26.6579 60.428 27.3164 64.7007 31.5878C65.1972 32.0843 66.0023 32.0843 66.4988 31.5878C66.9953 31.0907 66.9953 30.2856 66.4988 29.7891C62.1526 25.4386 55.6125 24.1357 49.9307 26.4897C44.2489 28.8443 40.5469 34.3907 40.5513 40.5406Z" fill="url(#paint3_linear_283:351)"/>
<path d="M70.9432 60.802H65.8778C65.1785 60.802 64.6115 61.369 64.6115 62.0683C64.6115 62.7677 65.1785 63.3347 65.8778 63.3347H67.4484L55.7472 73.0851L44.0466 63.3347H45.6165C46.3158 63.3347 46.8828 62.7677 46.8828 62.0683C46.8828 61.369 46.3158 60.802 45.6165 60.802H40.5512C40.0182 60.802 39.5421 61.1365 39.3609 61.638C39.1785 62.1394 39.3306 62.7015 39.7412 63.0434L54.9372 75.7068C55.4065 76.0976 56.0885 76.0976 56.5578 75.7068L71.7538 63.0434C72.1644 62.7015 72.3159 62.1394 72.1341 61.638C71.9523 61.1365 71.4768 60.802 70.9432 60.802Z" fill="url(#paint4_linear_283:351)"/>
<path d="M54.481 64.601V68.4C54.481 69.0994 55.048 69.6664 55.7473 69.6664C56.4466 69.6664 57.0136 69.0994 57.0136 68.4V64.601C57.0136 63.9017 56.4466 63.3347 55.7473 63.3347C55.048 63.3347 54.481 63.9017 54.481 64.601Z" fill="url(#paint5_linear_283:351)"/>
</g>
<defs>
<linearGradient id="paint0_linear_283:351" x1="31.6872" y1="-0.000671387" x2="31.6872" y2="68.4" gradientUnits="userSpaceOnUse">
<stop stop-color="#9621AE"/>
<stop offset="1" stop-color="#C500EE"/>
</linearGradient>
<linearGradient id="paint1_linear_283:351" x1="55.7472" y1="20.2793" x2="55.7472" y2="60.802" gradientUnits="userSpaceOnUse">
<stop stop-color="#9621AE"/>
<stop offset="1" stop-color="#C500EE"/>
</linearGradient>
<linearGradient id="paint2_linear_283:351" x1="55.7412" y1="30.41" x2="55.7412" y2="50.6714" gradientUnits="userSpaceOnUse">
<stop stop-color="#9621AE"/>
<stop offset="1" stop-color="#C500EE"/>
</linearGradient>
<linearGradient id="paint3_linear_283:351" x1="55.7473" y1="25.3321" x2="55.7473" y2="55.7366" gradientUnits="userSpaceOnUse">
<stop stop-color="#9621AE"/>
<stop offset="1" stop-color="#C500EE"/>
</linearGradient>
<linearGradient id="paint4_linear_283:351" x1="55.7473" y1="60.802" x2="55.7473" y2="75.9999" gradientUnits="userSpaceOnUse">
<stop stop-color="#9621AE"/>
<stop offset="1" stop-color="#C500EE"/>
</linearGradient>
<linearGradient id="paint5_linear_283:351" x1="55.7473" y1="63.3347" x2="55.7473" y2="69.6664" gradientUnits="userSpaceOnUse">
<stop stop-color="#9621AE"/>
<stop offset="1" stop-color="#C500EE"/>
</linearGradient>
<clipPath id="clip0_283:351">
<rect width="76" height="76" fill="white"/>
</clipPath>
</defs>
</svg>
