<svg width="76" height="72" viewBox="0 0 76 72" fill="none" xmlns="http://www.w3.org/2000/svg">
<path d="M11.8285 5.13776H9.44922V7.3812H11.8285V5.13776Z" fill="#FFB444"/>
<path d="M71.3096 5.13776H18.9661V7.3812H71.3096V5.13776Z" fill="#FFB444"/>
<path d="M4.75854 30.0519H7.00199V16.8982H9.44913V14.6547H4.75854V30.0519Z" fill="#FFB444"/>
<path d="M71.3094 64.6188H68.9302V66.8623H71.3094V64.6188Z" fill="#FFB444"/>
<path d="M30.7945 40.6906H39.122V26.551H28.551V34.8104H30.7945V28.7944H36.8784V38.4472H28.551V47.8284H39.1897V45.5849H30.7945V40.6906Z" fill="#FFB444"/>
<path d="M51.0179 26.483H48.7744V38.4472H43.8802V26.483H41.6367V40.6906H48.7744V47.8962H51.0179V40.6906H53.465V38.4472H51.0179V26.483Z" fill="#FFB444"/>
<path d="M35.6207 58.6708H33.2415V60.9142H35.6207V58.6708Z" fill="#FFB444"/>
<path d="M20.1559 39.6368H17.7766V41.8802H20.1559V39.6368Z" fill="#FFB444"/>
<path d="M20.1559 49.1537H17.7766V51.3972H20.1559V49.1537Z" fill="#FFB444"/>
<path d="M58.2236 0.379272V2.62271H73.7566V9.89625H2.24344V2.62271H54.6547V0.379272H0V49.0859H2.24344V12.1397H73.7566V69.3773H2.24344V52.6547H0V71.6208H76V0.379272H58.2236Z" fill="#FFB444"/>
<path d="M7.06992 5.13776H4.69067V7.3812H7.06992V5.13776Z" fill="#FFB444"/>
<path d="M16.5868 5.13776H14.2075V7.3812H16.5868V5.13776Z" fill="#FFB444"/>
<path d="M71.3094 59.8604H68.9302V62.1038H71.3094V59.8604Z" fill="#FFB444"/>
<path d="M66.5509 64.6189H64.1716V66.8623H66.5509V64.6189Z" fill="#FFB444"/>
<path d="M14.8261 58.7772L11.3102 62.2932L18.1786 67.4444L20.5906 62.6203L24.8461 65.4572V51.0984L10.4873 55.8849L14.8261 58.7772ZM22.6028 54.2111V61.2655L19.7206 59.3441L17.3741 64.0369L14.7256 62.0506L18.3476 58.4286L15.5485 56.5627L22.6028 54.2111Z" fill="#FFB444"/>
<path d="M41.5688 13.4651C28.487 13.4651 17.8442 24.108 17.8442 37.1897H20.0877C20.0877 25.3449 29.724 15.7086 41.5688 15.7086C53.4134 15.7086 63.0499 25.3451 63.0499 37.1897C63.0499 49.0343 53.4134 58.6708 41.5688 58.6708H37.9999V60.9142H41.5688C54.6506 60.9142 65.2933 50.2715 65.2933 37.1897C65.2933 24.1079 54.6506 13.4651 41.5688 13.4651Z" fill="#FFB444"/>
<path d="M30.8624 58.6708H28.4832V60.9142H30.8624V58.6708Z" fill="#FFB444"/>
<path d="M20.1556 44.3953H17.7764V46.6387H20.1556V44.3953Z" fill="#FFB444"/>
<path d="M7.06992 32.4991H4.69067V34.7425H7.06992V32.4991Z" fill="#FFB444"/>
<path d="M7.06992 37.2576H4.69067V39.501H7.06992V37.2576Z" fill="#FFB444"/>
</svg>
