<svg width="80" height="76" viewBox="0 0 80 76" fill="none" xmlns="http://www.w3.org/2000/svg">
<path d="M6.38059 64.2284H49.9213V74.9712C49.9119 75.3405 50.1049 75.6851 50.4244 75.8684C50.7432 76.0511 51.1365 76.043 51.448 75.8477L59.3926 70.9489L67.3392 75.8477C67.4996 75.9467 67.684 75.9989 67.8724 75.9989C68.0374 75.9989 68.1998 75.9541 68.3409 75.8684C68.6564 75.6831 68.8454 75.3385 68.8334 74.9712V64.2284H73.3564C76.8752 64.2284 79.7377 61.2618 79.7377 57.5801V18.5105C79.7377 18.5058 79.7377 18.5018 79.7377 18.4971C79.7377 18.4931 79.7377 18.4884 79.7377 18.4844V6.72524C79.7377 3.04282 76.8752 0 73.3564 0H6.38059C2.86251 0 0 3.04282 0 6.72524V57.5801C0 61.2618 2.86251 64.2284 6.38059 64.2284ZM46.726 47.3356L46.1556 46.9048C45.9646 46.7603 45.8521 46.5341 45.8521 46.2939C45.8521 46.0537 45.9646 45.8269 46.1556 45.6831L46.7213 45.2569C47.8235 44.432 48.1655 42.9253 47.5286 41.7016L47.2052 41.076C47.0947 40.8626 47.0907 40.6091 47.1945 40.3929C47.299 40.1762 47.498 40.021 47.7329 39.9748L48.4145 39.8417C49.7668 39.5814 50.7292 38.3698 50.682 36.9868L50.66 36.281C50.6527 36.0401 50.7585 35.81 50.9455 35.6601C51.1325 35.5103 51.3795 35.4574 51.6111 35.519L52.2886 35.6969C53.6184 36.0515 55.0067 35.3805 55.5611 34.1146L55.8506 33.467C55.9478 33.2475 56.1421 33.0863 56.3757 33.0328C56.6093 32.9793 56.8542 33.0401 57.0366 33.196L57.5697 33.6516C58.6153 34.5529 60.1587 34.5529 61.2043 33.6516L61.7374 33.196C61.9197 33.0401 62.1646 32.9793 62.3982 33.0328C62.6312 33.0863 62.8262 33.2475 62.9234 33.467L63.2109 34.1146C63.7659 35.3798 65.1543 36.0515 66.484 35.6969L67.1616 35.519C67.3932 35.4581 67.6394 35.5103 67.8271 35.6601C68.0141 35.8107 68.1199 36.0408 68.1126 36.281L68.0906 36.9868C68.0427 38.3698 69.0051 39.5814 70.3575 39.8417L71.039 39.9748C71.274 40.021 71.4736 40.1762 71.5774 40.3929C71.6813 40.6097 71.6779 40.8626 71.5675 41.076L71.2433 41.7016C70.6071 42.9253 70.9492 44.4326 72.0513 45.2569L72.617 45.6831C72.808 45.8269 72.9205 46.0537 72.9205 46.2939C72.9205 46.5341 72.808 46.7603 72.617 46.9048L72.0467 47.3356C70.9465 48.1606 70.6058 49.6666 71.242 50.8889L71.5655 51.5158C71.6759 51.7293 71.6799 51.9828 71.5761 52.1996C71.4716 52.4164 71.2726 52.5709 71.0377 52.6171L70.3562 52.7502C69.0038 53.0105 68.0421 54.2221 68.09 55.605L68.1119 56.3109C68.1193 56.5517 68.0134 56.7819 67.8258 56.9318C67.6387 57.0816 67.3918 57.1345 67.1602 57.0736L66.4827 56.895C65.1536 56.541 63.7659 57.2121 63.2109 58.4772L62.9247 59.1249C62.8275 59.345 62.6325 59.5062 62.3989 59.5598C62.1653 59.6133 61.9204 59.5524 61.738 59.3965L61.2049 58.9409C60.1593 58.0397 58.6166 58.0397 57.571 58.9409L57.0373 59.3965C56.8549 59.5524 56.61 59.6133 56.377 59.5598C56.1434 59.5062 55.9484 59.345 55.8513 59.1249L55.5651 58.4772C55.01 57.2114 53.6217 56.5404 52.2919 56.895L51.6151 57.0729C51.3835 57.1345 51.1365 57.0816 50.9489 56.9318C50.7618 56.7812 50.656 56.5517 50.6633 56.3109L50.6853 55.605C50.7326 54.2221 49.7708 53.0105 48.4184 52.7502L47.7369 52.6171C47.502 52.5709 47.3023 52.4157 47.1985 52.1989C47.0947 51.9822 47.098 51.7293 47.2085 51.5158L47.5326 50.8883C48.1682 49.6659 47.8261 48.1599 46.726 47.3356ZM59.8918 68.8669C59.5763 68.6648 59.173 68.6648 58.8582 68.8669L51.9658 73.136V59.1075C52.0264 59.0861 52.0889 59.0714 52.1522 59.062L52.8197 58.8834C53.1784 58.7877 53.5531 58.9697 53.7009 59.3115L53.9851 59.9599C54.3405 60.7741 55.0599 61.3702 55.9238 61.5636C56.1308 61.6111 56.3418 61.6351 56.5541 61.6358C57.217 61.6351 57.8586 61.3963 58.3617 60.9621L58.8941 60.5058C59.1777 60.2616 59.5956 60.2616 59.8785 60.5058L60.4116 60.9621C61.0851 61.5381 61.9896 61.7609 62.8515 61.5636C63.7134 61.3662 64.4328 60.7721 64.7915 59.9599L65.0784 59.3115C65.2281 58.969 65.6042 58.787 65.9642 58.8834L66.6118 59.062C66.6724 59.0707 66.7316 59.0854 66.7888 59.1075V73.1367L59.8918 68.8669ZM73.3564 62.1731H68.8334V58.6887C68.9272 58.6673 69.0111 58.6144 69.071 58.5388C69.7692 57.9888 70.1665 57.1378 70.1405 56.2467L70.1266 55.5408C70.1152 55.1655 70.3768 54.8376 70.7442 54.7681L71.4284 54.6343C72.2962 54.465 73.0337 53.8936 73.4183 53.0934C73.8037 52.2933 73.7897 51.3573 73.3824 50.5678L73.059 49.9409C72.8866 49.6097 72.9791 49.2023 73.2766 48.9788L73.8476 48.5479C74.5531 48.0154 74.9684 47.1797 74.9677 46.2926C74.9671 45.4054 74.5511 44.5698 73.8443 44.0379L73.2786 43.6124C72.9804 43.3889 72.8872 42.9808 73.0596 42.649L73.3837 42.0241C73.791 41.2353 73.805 40.2993 73.4203 39.4991C73.0363 38.6989 72.2989 38.1276 71.431 37.9576L70.7495 37.8245C70.3835 37.7536 70.1232 37.4257 70.1359 37.0511L70.1578 36.3452C70.1851 35.4567 69.7944 34.607 69.1029 34.0531C68.4114 33.4991 67.5003 33.3051 66.6451 33.5305L65.9676 33.7092C65.6075 33.8049 65.2321 33.6235 65.0817 33.281L64.7955 32.6327C64.4361 31.8205 63.7174 31.2257 62.8548 31.0283C61.9929 30.8316 61.0891 31.0544 60.4156 31.6305L59.8825 32.0868C59.599 32.3303 59.181 32.3303 58.8981 32.0868L58.365 31.6305C57.6915 31.0544 56.7877 30.8316 55.9258 31.029C55.0639 31.2264 54.3451 31.8205 53.9857 32.6327L53.6996 33.281C53.5491 33.6229 53.1738 33.8049 52.8137 33.7092L52.1362 33.5305C51.281 33.3051 50.3698 33.4991 49.6783 34.0531C48.9868 34.607 48.5955 35.4567 48.6234 36.3452L48.6454 37.0511C48.658 37.4257 48.3978 37.7536 48.0318 37.8245L47.3503 37.9576C46.4824 38.1276 45.745 38.6989 45.3609 39.4991C44.9762 40.2993 44.9902 41.2353 45.3975 42.0241L45.7217 42.649C45.894 42.9808 45.8015 43.3889 45.5027 43.6124L44.937 44.0379C44.2302 44.5698 43.8142 45.4054 43.8135 46.2926C43.8135 47.1797 44.2282 48.0154 44.9337 48.5479L45.5047 48.9788C45.8022 49.2023 45.8947 49.6104 45.7223 49.9416L45.3989 50.5685C44.9909 51.3573 44.9776 52.2926 45.3616 53.0928C45.7463 53.8936 46.4837 54.465 47.3509 54.6343L48.0324 54.7681C48.3985 54.8383 48.6587 55.1668 48.6461 55.5408L48.6241 56.2467C48.6001 57.1392 48.9995 57.9895 49.699 58.5388C49.7662 58.593 49.7555 58.6418 49.9259 58.6887V62.1731H6.38059C3.98928 62.1731 2.04456 60.1285 2.04456 57.5801V19.5254H77.6931V57.5801C77.6931 60.1285 75.7471 62.1731 73.3564 62.1731ZM6.38059 2.05531H73.3564C75.7471 2.05531 77.6931 4.17618 77.6931 6.72524V17.4701H2.04456V6.72524C2.04456 4.17618 3.98928 2.05531 6.38059 2.05531Z" fill="#25D8FF"/>
<path d="M20.6685 14.169C23.2062 14.169 25.2634 12.1017 25.2634 9.55062C25.2634 6.99955 23.2062 4.9322 20.6685 4.9322C18.1315 4.9322 16.0743 6.99955 16.0743 9.55062C16.0776 12.1004 18.1328 14.1664 20.6685 14.169ZM20.6685 6.98751C22.0768 6.98751 23.2189 8.13492 23.2189 9.55062C23.2189 10.9663 22.0768 12.1137 20.6685 12.1137C19.2602 12.1137 18.1188 10.9663 18.1188 9.55062C18.1208 8.13559 19.2616 6.98885 20.6685 6.98751Z" fill="#25D8FF"/>
<path d="M32.2783 14.169C34.8154 14.169 36.8726 12.1017 36.8726 9.55062C36.8726 6.99955 34.8154 4.9322 32.2783 4.9322C29.7406 4.9322 27.6834 6.99955 27.6834 9.55062C27.6867 12.1004 29.7419 14.1664 32.2783 14.169ZM32.2783 6.98751C33.6866 6.98751 34.828 8.13492 34.828 9.55062C34.828 10.9663 33.6866 12.1137 32.2783 12.1137C30.87 12.1137 29.7279 10.9663 29.7279 9.55062C29.7299 8.13559 30.8707 6.98885 32.2783 6.98751Z" fill="#25D8FF"/>
<path d="M9.05941 14.169C11.5971 14.169 13.6537 12.1017 13.6537 9.55062C13.6537 6.99955 11.5971 4.9322 9.05941 4.9322C6.52168 4.9322 4.46515 6.99955 4.46515 9.55062C4.46847 12.1004 6.52301 14.1664 9.05941 14.169ZM9.05941 6.98751C10.4677 6.98751 11.6091 8.13492 11.6091 9.55062C11.6091 10.9663 10.4677 12.1137 9.05941 12.1137C7.65111 12.1137 6.5097 10.9663 6.5097 9.55062C6.5117 8.13559 7.65178 6.98885 9.05941 6.98751Z" fill="#25D8FF"/>
<path d="M36.6689 40.7563L15.8034 33.089C15.4347 32.9532 15.022 33.0422 14.7405 33.3165C14.459 33.5915 14.3585 34.0036 14.4823 34.3783L21.7534 56.3812C21.8838 56.7752 22.2372 57.0522 22.6492 57.0823C22.6745 57.0843 22.6991 57.085 22.7237 57.085C23.1098 57.085 23.4632 56.8662 23.6369 56.5197L26.7017 50.3992L30.7988 54.6751C30.9925 54.8738 31.2594 54.9835 31.5362 54.9795H31.5382C31.8158 54.9829 32.0826 54.8718 32.2756 54.6711L35.0809 51.7186C35.4563 51.3238 35.4576 50.7023 35.0836 50.3062L30.9319 45.8945L36.8127 42.6202C37.1621 42.4249 37.3671 42.0422 37.3358 41.6414C37.3045 41.2407 37.0443 40.8948 36.6689 40.7563ZM28.7882 44.7404C28.5113 44.8943 28.3216 45.168 28.2731 45.4817C28.2251 45.7955 28.3236 46.1147 28.5406 46.3455L32.9319 51.0121L31.5329 52.4873L27.1756 47.9278C26.946 47.6869 26.6138 47.5738 26.2857 47.6234C25.9576 47.6729 25.6741 47.8796 25.525 48.1773L22.9181 53.3845L17.0912 35.7498L33.8643 41.9137L28.7882 44.7404Z" fill="#25D8FF"/>
<path d="M9.43479 26.2185C9.04545 25.8078 8.39854 25.7924 7.98989 26.1838C7.58125 26.5758 7.56527 27.2261 7.95528 27.6369L10.4444 30.2623C10.8338 30.673 11.4807 30.6884 11.8893 30.297C12.298 29.9057 12.3139 29.2547 11.9239 28.8439L9.43479 26.2185Z" fill="#25D8FF"/>
<path d="M16.62 28.9423C16.6799 29.3069 16.9315 29.6113 17.2769 29.7384C17.6223 29.8655 18.0097 29.796 18.2899 29.5564C18.5707 29.3169 18.7012 28.9443 18.632 28.5803L17.9212 24.5801C17.8599 24.2154 17.609 23.9117 17.2636 23.7846C16.9182 23.6581 16.5315 23.7277 16.2513 23.9666C15.9704 24.2061 15.84 24.5787 15.9085 24.9414L16.62 28.9423Z" fill="#25D8FF"/>
<path d="M10.6314 35.3376L6.83714 34.5876C6.47775 34.5134 6.10637 34.6391 5.86411 34.9161C5.62185 35.1938 5.54598 35.5805 5.66578 35.9291C5.78558 36.2783 6.08175 36.5359 6.44247 36.6041L10.2361 37.3541C10.7905 37.4639 11.3282 37.1012 11.4374 36.5446C11.5465 35.9879 11.1858 35.4474 10.6314 35.3376Z" fill="#25D8FF"/>
<path d="M59.3873 56.2011C64.8295 56.2011 69.2407 51.766 69.2407 46.2959C69.2407 40.8251 64.8295 36.3907 59.3873 36.3907C53.9458 36.3907 49.5339 40.8258 49.5346 46.2959C49.5406 51.7634 53.9485 56.1945 59.3873 56.2011ZM59.3873 38.446C63.7 38.446 67.1961 41.9605 67.1961 46.2959C67.1961 50.6313 63.7 54.1458 59.3873 54.1458C55.0746 54.1458 51.5785 50.6313 51.5791 46.2959C51.5838 41.9625 55.0772 38.4514 59.3873 38.446Z" fill="#25D8FF"/>
</svg>
