<svg width="166" height="33" viewBox="0 0 166 33" fill="none" xmlns="http://www.w3.org/2000/svg">
<path d="M29.025 32.63L21.825 16.34L14.94 32.63H14.13L0 2.03H7.155L14.49 19.175L21.15 1.4H22.14L29.565 19.175L37.035 2.03H43.785L29.97 32.63H29.025ZM58.6223 25.295L62.7173 28.4C60.2873 31.13 57.0473 32.495 52.9973 32.495C49.4873 32.495 46.6673 31.445 44.5373 29.345C42.4073 27.215 41.3423 24.5 41.3423 21.2C41.3423 18.2 42.4223 15.545 44.5823 13.235C46.7423 10.955 49.4723 9.815 52.7723 9.815C54.6623 9.815 56.3423 10.16 57.8123 10.85C59.2823 11.54 60.4223 12.455 61.2323 13.595C62.0423 14.735 62.6423 15.935 63.0323 17.195C63.4523 18.455 63.6623 19.73 63.6623 21.02C63.6623 21.86 63.6173 22.64 63.5273 23.36H47.5973C47.9573 24.59 48.6623 25.565 49.7123 26.285C50.7623 26.975 52.0073 27.32 53.4473 27.32C55.5773 27.32 57.3023 26.645 58.6223 25.295ZM47.4623 18.86H57.1823C57.0323 17.72 56.5523 16.79 55.7423 16.07C54.9323 15.35 53.9273 14.99 52.7273 14.99C51.3773 14.99 50.2073 15.35 49.2173 16.07C48.2573 16.79 47.6723 17.72 47.4623 18.86Z" fill="#FFEC44"/>
<path d="M78.1309 32H68.9959V2.03H77.9959C83.2159 2.03 87.2509 3.41 90.1009 6.17C92.9509 8.93 94.3759 12.545 94.3759 17.015C94.3759 21.635 92.9809 25.295 90.1909 27.995C87.4309 30.665 83.4109 32 78.1309 32ZM78.2659 7.88H75.3859V26.15H78.0859C84.5059 26.15 87.7159 23.12 87.7159 17.06C87.7159 14.57 86.9659 12.41 85.4659 10.58C83.9659 8.78 81.5659 7.88 78.2659 7.88ZM97.6363 21.155C97.6363 18.185 98.7313 15.56 100.921 13.28C103.141 10.97 106.081 9.815 109.741 9.815C113.401 9.815 116.326 10.91 118.516 13.1C120.766 15.32 121.876 18.005 121.846 21.155C121.786 24.245 120.646 26.915 118.426 29.165C116.206 31.385 113.311 32.495 109.741 32.495C106.201 32.495 103.291 31.43 101.011 29.3C98.7613 27.14 97.6363 24.425 97.6363 21.155ZM103.846 21.155C103.846 22.865 104.386 24.275 105.466 25.385C106.606 26.525 108.031 27.095 109.741 27.095C111.511 27.095 112.936 26.525 114.016 25.385C115.096 24.245 115.636 22.835 115.636 21.155C115.636 19.655 115.126 18.305 114.106 17.105C113.056 15.845 111.601 15.215 109.741 15.215C108.061 15.215 106.666 15.77 105.556 16.88C104.416 17.96 103.846 19.385 103.846 21.155Z" fill="#25D8FF"/>
<path d="M142.363 32H136.423V10.31H142.363V32ZM142.363 0.634999V6.575H136.423V0.634999H142.363ZM158.566 32H152.176V7.88H145.651V2.03H165.091V7.88H158.566V32Z" fill="#FF614B"/>
</svg>
