<svg width="80" height="76" fill="none" xmlns="http://www.w3.org/2000/svg"><path d="M6.38 64.228h43.541v10.743c-.01.37.184.714.503.897a.995.995 0 0 0 1.024-.02l7.945-4.9 7.946 4.9c.16.099.345.15.533.15a.903.903 0 0 0 .469-.13c.315-.185.504-.53.492-.897V64.228h4.523c3.52 0 6.382-2.966 6.382-6.648V6.725C79.738 3.043 76.875 0 73.356 0H6.381C2.863 0 0 3.043 0 6.725V57.58c0 3.682 2.863 6.648 6.38 6.648Zm40.346-16.892-.57-.431a.766.766 0 0 1 0-1.222l.565-.426a2.818 2.818 0 0 0 .808-3.555l-.324-.626a.766.766 0 0 1 .528-1.101l.681-.133a2.806 2.806 0 0 0 2.268-2.855l-.022-.706a.766.766 0 0 1 .286-.62.755.755 0 0 1 .665-.142l.678.178a2.789 2.789 0 0 0 3.272-1.582l.29-.648a.757.757 0 0 1 1.186-.271l.533.456a2.78 2.78 0 0 0 3.634 0l.533-.456a.757.757 0 0 1 1.186.271l.288.648a2.79 2.79 0 0 0 3.273 1.582l.678-.178a.757.757 0 0 1 .95.762l-.021.706a2.805 2.805 0 0 0 2.267 2.855l.681.133a.766.766 0 0 1 .528 1.101l-.324.626a2.819 2.819 0 0 0 .808 3.555l.566.426a.765.765 0 0 1 0 1.222l-.57.43a2.818 2.818 0 0 0-.805 3.554l.323.627a.76.76 0 0 1-.528 1.101l-.68.133a2.804 2.804 0 0 0-2.267 2.855l.022.706a.764.764 0 0 1-.286.62.757.757 0 0 1-.666.143l-.677-.179a2.79 2.79 0 0 0-3.272 1.582l-.286.648a.757.757 0 0 1-1.187.272l-.533-.456a2.78 2.78 0 0 0-3.634 0l-.534.456a.756.756 0 0 1-1.186-.272l-.286-.648a2.79 2.79 0 0 0-3.273-1.582l-.677.178a.756.756 0 0 1-.666-.141.767.767 0 0 1-.286-.621l.022-.706a2.805 2.805 0 0 0-2.267-2.855l-.681-.133a.766.766 0 0 1-.528-1.101l.324-.628a2.818 2.818 0 0 0-.807-3.552Zm13.166 21.53a.957.957 0 0 0-1.034 0l-6.892 4.27V59.108a1 1 0 0 1 .186-.046l.668-.179a.75.75 0 0 1 .88.428l.285.649a2.78 2.78 0 0 0 1.939 1.604 2.771 2.771 0 0 0 2.438-.602l.532-.456a.753.753 0 0 1 .985 0l.533.456a2.794 2.794 0 0 0 2.44.602 2.807 2.807 0 0 0 1.94-1.604l.286-.648a.754.754 0 0 1 .886-.429l.648.179c.06.009.12.023.177.046v14.029l-6.897-4.27Zm13.464-6.693h-4.523V58.69a.424.424 0 0 0 .238-.15 2.814 2.814 0 0 0 1.07-2.292l-.014-.706a.761.761 0 0 1 .617-.773l.684-.134a2.806 2.806 0 0 0 1.99-1.54c.386-.8.372-1.737-.036-2.526l-.323-.627a.763.763 0 0 1 .218-.962l.57-.431a2.823 2.823 0 0 0 1.12-2.255 2.82 2.82 0 0 0-1.123-2.255l-.565-.426a.764.764 0 0 1-.22-.963l.325-.625a2.832 2.832 0 0 0 .036-2.525 2.806 2.806 0 0 0-1.989-1.541l-.681-.133a.76.76 0 0 1-.614-.774l.022-.706a2.825 2.825 0 0 0-1.055-2.292 2.792 2.792 0 0 0-2.458-.522l-.677.178a.755.755 0 0 1-.886-.428l-.286-.648a2.794 2.794 0 0 0-4.38-1.002l-.533.456a.755.755 0 0 1-.985 0l-.533-.457a2.792 2.792 0 0 0-2.44-.601 2.809 2.809 0 0 0-1.94 1.604l-.285.648a.756.756 0 0 1-.886.428l-.678-.178a2.792 2.792 0 0 0-2.458.522 2.824 2.824 0 0 0-1.055 2.292l.022.706a.76.76 0 0 1-.613.773l-.682.134a2.806 2.806 0 0 0-1.99 1.541c-.384.8-.37 1.736.038 2.525l.324.625c.172.332.08.74-.22.963l-.565.426a2.824 2.824 0 0 0-.003 4.51l.57.43c.298.224.39.632.218.964l-.323.627a2.83 2.83 0 0 0-.037 2.524 2.806 2.806 0 0 0 1.989 1.541l.681.134a.76.76 0 0 1 .614.773l-.022.706a2.818 2.818 0 0 0 1.075 2.292c.067.054.056.103.227.15v3.484H6.38c-2.392 0-4.336-2.044-4.336-4.593V19.525h75.648V57.58c0 2.549-1.946 4.593-4.337 4.593ZM6.381 2.055h66.975c2.391 0 4.337 2.121 4.337 4.67V17.47H2.045V6.725c0-2.549 1.944-4.67 4.336-4.67Z" fill="#25D8FF"/><path d="M20.669 14.169c2.537 0 4.594-2.067 4.594-4.618s-2.057-4.619-4.595-4.619c-2.537 0-4.594 2.068-4.594 4.619.004 2.55 2.059 4.615 4.595 4.618Zm0-7.181a2.557 2.557 0 0 1 2.55 2.563 2.557 2.557 0 0 1-2.55 2.563 2.556 2.556 0 0 1-2.55-2.563 2.56 2.56 0 0 1 2.55-2.563Zm11.609 7.181c2.537 0 4.595-2.067 4.595-4.618s-2.058-4.619-4.595-4.619S27.683 7 27.683 9.551c.004 2.55 2.059 4.615 4.595 4.618Zm0-7.181a2.556 2.556 0 0 1 2.55 2.563 2.556 2.556 0 0 1-2.55 2.563 2.557 2.557 0 0 1-2.55-2.563 2.56 2.56 0 0 1 2.55-2.563ZM9.06 14.169c2.537 0 4.594-2.067 4.594-4.618s-2.057-4.619-4.595-4.619C6.522 4.932 4.465 7 4.465 9.551c.003 2.55 2.058 4.615 4.594 4.618Zm0-7.181a2.556 2.556 0 0 1 2.55 2.563 2.556 2.556 0 0 1-2.55 2.563A2.556 2.556 0 0 1 6.51 9.55a2.56 2.56 0 0 1 2.55-2.563Zm27.609 33.768L15.803 33.09a1.018 1.018 0 0 0-1.063.227 1.032 1.032 0 0 0-.258 1.062l7.271 22.003a1.024 1.024 0 0 0 .97.704c.387 0 .74-.219.914-.565l3.065-6.12 4.097 4.275c.194.199.46.309.737.305h.002c.278.003.545-.108.738-.309l2.805-2.952a1.028 1.028 0 0 0 .003-1.413l-4.152-4.411 5.88-3.275a1.03 1.03 0 0 0-.143-1.864Zm-7.88 3.984a1.034 1.034 0 0 0-.248 1.605l4.39 4.667-1.398 1.475-4.357-4.56a1.019 1.019 0 0 0-1.651.25l-2.607 5.208-5.827-17.635 16.773 6.164-5.076 2.826ZM9.435 26.218a1.018 1.018 0 0 0-1.445-.034 1.031 1.031 0 0 0-.035 1.453l2.49 2.625a1.017 1.017 0 0 0 1.444.035 1.031 1.031 0 0 0 .035-1.453l-2.49-2.626Zm7.185 2.724a1.023 1.023 0 0 0 1.67.614c.28-.24.411-.612.342-.976l-.71-4a1.02 1.02 0 0 0-1.67-.614 1.03 1.03 0 0 0-.343.975l.711 4.001Zm-5.989 6.396-3.794-.75c-.36-.075-.73.051-.973.328a1.032 1.032 0 0 0-.198 1.013c.12.35.416.607.776.675l3.794.75a1.028 1.028 0 0 0 .395-2.017Zm48.756 20.863c5.442 0 9.854-4.435 9.854-9.905s-4.412-9.905-9.854-9.905c-5.441 0-9.853 4.435-9.852 9.905.006 5.467 4.414 9.898 9.852 9.905Zm0-17.755c4.313 0 7.81 3.515 7.81 7.85 0 4.335-3.497 7.85-7.81 7.85-4.312 0-7.809-3.515-7.808-7.85.005-4.334 3.498-7.845 7.808-7.85Z" fill="#25D8FF"/></svg>