<svg width="76" height="76" fill="none" xmlns="http://www.w3.org/2000/svg"><g clip-path="url(#a)"><path d="M38.019 65.867H25.355v-48.12H38.02v4.483a1.266 1.266 0 0 0 2.532 0v-4.483H62.08a1.267 1.267 0 0 0 .633-2.369l-3.166-1.823 1.04-1.38c.261-.371.305-.855.113-1.267a1.266 1.266 0 0 0-1.153-.76H51.86c.061-.419.09-.842.088-1.266a8.863 8.863 0 0 0-17.272-2.824 5.065 5.065 0 0 0-5.978 0 8.864 8.864 0 0 0-17.273 2.824 8.36 8.36 0 0 0 .09 1.267H3.828c-.477 0-.912.27-1.127.696-.192.412-.15.895.114 1.266l1.013 1.444-3.166 1.823a1.267 1.267 0 0 0 .633 2.369h3.799v49.387c0 .699.567 1.266 1.266 1.266h31.66a1.266 1.266 0 0 0 0-2.533Zm18.995-53.186-.38.507a1.267 1.267 0 0 0 .38 1.861l.29.165h-8.028a8.572 8.572 0 0 0 1.812-2.533h5.926ZM36.752 8.882a6.332 6.332 0 1 1 12.664 0c0 .68-.11 1.357-.33 2.001l-.075.228a6.332 6.332 0 0 1-5.927 4.103h-6.332v-2.533h6.332a3.799 3.799 0 1 0-3.8-3.799v1.267h-2.532V8.882Zm5.066 1.267V8.882a1.266 1.266 0 1 1 1.266 1.267h-1.266ZM31.687 7.616c1.4 0 2.533 1.134 2.533 2.533v5.065h-5.066v-5.065a2.533 2.533 0 0 1 2.533-2.533ZM20.29 2.55a6.331 6.331 0 0 1 6.332 6.331v1.267h-2.533V8.882a3.799 3.799 0 1 0-3.8 3.8h6.333v2.532H20.29a6.331 6.331 0 0 1-5.926-4.103c0-.089 0-.152-.076-.228a6.205 6.205 0 0 1-.33-2A6.332 6.332 0 0 1 20.29 2.55Zm1.266 7.598H20.29a1.266 1.266 0 1 1 1.266-1.267v1.267Zm-15.196 4.9a1.266 1.266 0 0 0 .38-1.861l-.38-.507h5.927a8.568 8.568 0 0 0 1.811 2.533H6.069l.291-.165Zm1.267 2.698h15.196v48.12H7.627v-48.12Z" fill="url(#b)"/><path d="M35.486 40.54c0 11.19 9.071 20.262 20.261 20.262s20.261-9.072 20.261-20.261c0-11.19-9.07-20.262-20.26-20.262-11.19 0-20.262 9.072-20.262 20.262Zm37.99 0c0 9.792-7.937 17.73-17.729 17.73-9.791 0-17.728-7.938-17.728-17.73 0-9.79 7.937-17.728 17.728-17.728 9.792 0 17.729 7.937 17.729 17.729Z" fill="url(#c)"/><path d="M55.747 35.475a1.912 1.912 0 0 1 1.888 1.9 1.266 1.266 0 1 0 2.532 0 4.445 4.445 0 0 0-3.153-4.242v-1.457a1.266 1.266 0 0 0-2.533 0v1.457a4.433 4.433 0 0 0 1.266 8.674 1.9 1.9 0 1 1-1.9 1.9 1.266 1.266 0 0 0-2.532 0 4.446 4.446 0 0 0 3.166 4.242v1.456a1.266 1.266 0 0 0 2.533 0v-1.456a4.432 4.432 0 0 0-1.267-8.675 1.9 1.9 0 0 1 0-3.799Z" fill="url(#d)"/><path d="M40.551 40.54c0 8.393 6.804 15.197 15.196 15.197 8.393 0 15.196-6.804 15.196-15.196a1.266 1.266 0 0 0-2.532 0 12.663 12.663 0 1 1-3.71-8.953 1.272 1.272 0 1 0 1.798-1.799A15.197 15.197 0 0 0 40.55 40.541Z" fill="url(#e)"/><path d="M70.943 60.802h-5.065a1.266 1.266 0 0 0 0 2.533h1.57l-11.7 9.75-11.701-9.75h1.57a1.266 1.266 0 0 0 0-2.533H40.55a1.266 1.266 0 0 0-.81 2.241l15.196 12.664c.47.39 1.152.39 1.62 0l15.197-12.664a1.267 1.267 0 0 0-.81-2.241Z" fill="url(#f)"/><path d="M54.481 64.601V68.4a1.266 1.266 0 1 0 2.533 0v-3.799a1.266 1.266 0 0 0-2.533 0Z" fill="url(#g)"/></g><defs><linearGradient id="b" x1="31.687" y1="-.001" x2="31.687" y2="68.4" gradientUnits="userSpaceOnUse"><stop stop-color="#9621AE"/><stop offset="1" stop-color="#C500EE"/></linearGradient><linearGradient id="c" x1="55.747" y1="20.279" x2="55.747" y2="60.802" gradientUnits="userSpaceOnUse"><stop stop-color="#9621AE"/><stop offset="1" stop-color="#C500EE"/></linearGradient><linearGradient id="d" x1="55.741" y1="30.41" x2="55.741" y2="50.671" gradientUnits="userSpaceOnUse"><stop stop-color="#9621AE"/><stop offset="1" stop-color="#C500EE"/></linearGradient><linearGradient id="e" x1="55.747" y1="25.332" x2="55.747" y2="55.737" gradientUnits="userSpaceOnUse"><stop stop-color="#9621AE"/><stop offset="1" stop-color="#C500EE"/></linearGradient><linearGradient id="f" x1="55.747" y1="60.802" x2="55.747" y2="76" gradientUnits="userSpaceOnUse"><stop stop-color="#9621AE"/><stop offset="1" stop-color="#C500EE"/></linearGradient><linearGradient id="g" x1="55.747" y1="63.335" x2="55.747" y2="69.666" gradientUnits="userSpaceOnUse"><stop stop-color="#9621AE"/><stop offset="1" stop-color="#C500EE"/></linearGradient><clipPath id="a"><path fill="#fff" d="M0 0h76v76H0z"/></clipPath></defs></svg>