<svg width="166" height="33" fill="none" xmlns="http://www.w3.org/2000/svg"><path d="m29.025 32.63-7.2-16.29-6.885 16.29h-.81L0 2.03h7.155l7.335 17.145L21.15 1.4h.99l7.425 17.775 7.47-17.145h6.75L29.97 32.63h-.945Zm29.597-7.335 4.095 3.105c-2.43 2.73-5.67 4.095-9.72 4.095-3.51 0-6.33-1.05-8.46-3.15-2.13-2.13-3.195-4.845-3.195-8.145 0-3 1.08-5.655 3.24-7.965 2.16-2.28 4.89-3.42 8.19-3.42 1.89 0 3.57.345 5.04 1.035 1.47.69 2.61 1.605 3.42 2.745.81 1.14 1.41 2.34 1.8 3.6.42 1.26.63 2.535.63 3.825 0 .84-.045 1.62-.135 2.34h-15.93a5.223 5.223 0 0 0 2.115 2.925c1.05.69 2.295 1.035 3.735 1.035 2.13 0 3.855-.675 5.175-2.025Zm-11.16-6.435h9.72c-.15-1.14-.63-2.07-1.44-2.79-.81-.72-1.815-1.08-3.015-1.08-1.35 0-2.52.36-3.51 1.08-.96.72-1.545 1.65-1.755 2.79Z" fill="#FFEC44"/><path d="M78.13 32h-9.134V2.03h9c5.22 0 9.255 1.38 12.105 4.14 2.85 2.76 4.275 6.375 4.275 10.845 0 4.62-1.395 8.28-4.185 10.98C87.43 30.665 83.41 32 78.13 32Zm.136-24.12h-2.88v18.27h2.7c6.42 0 9.63-3.03 9.63-9.09 0-2.49-.75-4.65-2.25-6.48-1.5-1.8-3.9-2.7-7.2-2.7Zm19.37 13.275c0-2.97 1.095-5.595 3.285-7.875 2.22-2.31 5.16-3.465 8.82-3.465s6.585 1.095 8.775 3.285c2.25 2.22 3.36 4.905 3.33 8.055-.06 3.09-1.2 5.76-3.42 8.01-2.22 2.22-5.115 3.33-8.685 3.33-3.54 0-6.45-1.065-8.73-3.195-2.25-2.16-3.375-4.875-3.375-8.145Zm6.21 0c0 1.71.54 3.12 1.62 4.23 1.14 1.14 2.565 1.71 4.275 1.71 1.77 0 3.195-.57 4.275-1.71 1.08-1.14 1.62-2.55 1.62-4.23 0-1.5-.51-2.85-1.53-4.05-1.05-1.26-2.505-1.89-4.365-1.89-1.68 0-3.075.555-4.185 1.665-1.14 1.08-1.71 2.505-1.71 4.275Z" fill="#25D8FF"/><path d="M142.363 32h-5.94V10.31h5.94V32Zm0-31.365v5.94h-5.94V.635h5.94ZM158.566 32h-6.39V7.88h-6.525V2.03h19.44v5.85h-6.525V32Z" fill="#FF614B"/></svg>